<svg xmlns="http://www.w3.org/2000/svg" width="104.489" height="103.619" viewBox="0 0 104.489 103.619"><defs><style>.a{fill:#3b4b68;}</style></defs><path class="a" d="M99.483,25.68,53.627,2.461a3.062,3.062,0,0,0-2.766,0L5.006,25.68a3.21,3.21,0,0,0-1.678,2.731v8.163a3.061,3.061,0,0,0,3.061,3.061h.643v6.1A3.061,3.061,0,0,0,10.093,48.8h1.371V72.522H10.093a3.061,3.061,0,0,0-3.061,3.061v6.108H6.425a3.061,3.061,0,0,0-3.061,3.061V90.6h-.3A3.061,3.061,0,0,0,0,93.66v9.029a3.061,3.061,0,0,0,3.061,3.061h98.366a3.061,3.061,0,0,0,3.061-3.061V93.66a3.061,3.061,0,0,0-3.061-3.061h-.3V84.753a3.061,3.061,0,0,0-3.061-3.061h-.607V75.584A3.061,3.061,0,0,0,94.4,72.522H93.024V48.8H94.4a3.061,3.061,0,0,0,3.061-3.061v-6.1H98.1a3.061,3.061,0,0,0,3.061-3.061V28.411a3.223,3.223,0,0,0-1.678-2.731ZM52.244,8.624,85.278,25.35H19.211ZM10.093,33.513H9.45V31.472H95.039v2.041ZM89.963,78.645h1.371v3.047H78.482V78.645h1.371a3.061,3.061,0,0,0,3.061-3.061V45.74a3.061,3.061,0,0,0-3.061-3.061H78.482V39.635H91.334v3.044H89.963A3.061,3.061,0,0,0,86.9,45.74V75.584A3.061,3.061,0,0,0,89.963,78.645ZM61.731,72.522H60.36V48.8h1.371a3.061,3.061,0,0,0,3.061-3.061v-6.1H72.36v6.1A3.061,3.061,0,0,0,75.421,48.8h1.371V72.522H75.421a3.061,3.061,0,0,0-3.061,3.061v6.108H64.793V75.584A3.061,3.061,0,0,0,61.731,72.522ZM57.3,78.645H58.67v3.047H45.818V78.645H47.19a3.061,3.061,0,0,0,3.061-3.061V45.74a3.061,3.061,0,0,0-3.061-3.061H45.818V39.635H58.67v3.044H57.3a3.061,3.061,0,0,0-3.061,3.061V75.584A3.061,3.061,0,0,0,57.3,78.645ZM29.068,72.522H27.7V48.8h1.371a3.061,3.061,0,0,0,3.061-3.061v-6.1H39.7v6.1A3.061,3.061,0,0,0,42.757,48.8h1.371V72.522H42.757A3.061,3.061,0,0,0,39.7,75.584v6.108H32.129V75.584A3.061,3.061,0,0,0,29.068,72.522Zm-4.433,6.122h1.371v3.047H13.155V78.645h1.371a3.061,3.061,0,0,0,3.061-3.061V45.74a3.061,3.061,0,0,0-3.061-3.061H13.155V39.635H26.007v3.044H24.635a3.061,3.061,0,0,0-3.061,3.061V75.584A3.061,3.061,0,0,0,24.635,78.645ZM9.487,87.814H95V90.6H9.487Zm88.88,11.813H6.122V96.721H98.366Z" transform="translate(0 -2.131)"/></svg>