<svg width="512" height="512" xmlns="http://www.w3.org/2000/svg">

 <g>
  <title>background</title>
  <rect fill="none" id="canvas_background" height="402" width="582" y="-1" x="-1"/>
 </g>
 <g>
  <title>Layer 1</title>
  <path fill="#ffffff" id="svg_6" d="m424,322.384819l-335,0c-4.418,0 -8,-3.582 -8,-8s3.582,-8 8,-8l335,0c4.418,0 8,3.582 8,8s-3.582,8 -8,8z"/>
  <path fill="#ffffff" id="svg_8" d="m424,193.384819l-335,0c-4.418,0 -8,-3.582 -8,-8c0,-4.418 3.582,-8 8,-8l335,0c4.418,0 8,3.582 8,8c0,4.418 -3.582,8 -8,8z"/>
 </g>
</svg>