<svg width="128" height="128" xmlns="http://www.w3.org/2000/svg">

 <g>
  <title>background</title>
  <rect fill="none" id="canvas_background" height="402" width="582" y="-1" x="-1"/>
 </g>
 <g>
  <title>Layer 1</title>
  <path stroke="#ffffff" id="svg_1" stroke-width="2" stroke-miterlimit="10" fill="none" d="m118.487537,50.534179c0.562,-0.793 -16.281,-26.647 -53.753,-26.924c-23.213,-0.172 -43.401,9.86 -53.749,24.379c-0.565,0.794 -0.565,1.753 0,2.545c10.346,14.518 30.536,24.375 53.749,24.375c23.21,0.004 43.401,-9.853 53.753,-24.375z"/>
  <path id="svg_3" fill="#ffffff" d="m4.498821,67.445179c-0.533,0.724 -1.323,1.043 -1.769,0.715l0,0c-0.444,-0.326 -0.375,-1.178 0.157,-1.9l8.743,-11.88c0.533,-0.724 1.324,-1.043 1.769,-0.716l0,0c0.444,0.327 0.375,1.177 -0.158,1.901l-8.742,11.88z"/>
  <path id="svg_4" fill="#ffffff" d="m21.319821,79.975179c-0.469,0.767 -1.229,1.152 -1.701,0.863l0,0c-0.47,-0.287 -0.475,-1.142 -0.006,-1.907l7.695,-12.584c0.469,-0.768 1.23,-1.152 1.702,-0.863l0,0c0.471,0.287 0.475,1.141 0.005,1.906l-7.695,12.585z"/>
  <path id="svg_5" fill="#ffffff" d="m41.818,87.674c-0.347,0.83 -1.04,1.326 -1.55,1.112l0,0c-0.508,-0.213 -0.642,-1.056 -0.295,-1.884l5.691,-13.608c0.348,-0.83 1.04,-1.326 1.551,-1.112l0,0c0.509,0.213 0.643,1.055 0.294,1.883l-5.691,13.609z"/>
  <path id="svg_6" fill="#ffffff" d="m64.764,90.404c-0.029,0.897 -0.5,1.609 -1.054,1.591l0,0c-0.55,-0.019 -0.976,-0.759 -0.947,-1.655l0.476,-14.742c0.03,-0.898 0.5,-1.609 1.053,-1.593l0,0c0.551,0.019 0.976,0.759 0.944,1.656l-0.472,14.743z"/>
  <path id="svg_8" fill="#ffffff" d="m122.893,69.518c0.533,0.724 1.323,1.043 1.77,0.715l0,0c0.443,-0.326 0.375,-1.178 -0.157,-1.9l-8.741,-11.88c-0.533,-0.724 -1.324,-1.043 -1.771,-0.716l0,0c-0.444,0.327 -0.375,1.177 0.157,1.901l8.742,11.88z"/>
  <path id="svg_9" fill="#ffffff" d="m106.07,82.048c0.47,0.767 1.229,1.152 1.701,0.863l0,0c0.471,-0.287 0.475,-1.142 0.006,-1.907l-7.694,-12.584c-0.47,-0.768 -1.229,-1.152 -1.702,-0.863l0,0c-0.471,0.287 -0.475,1.141 -0.004,1.906l7.693,12.585z"/>
  <path id="svg_10" fill="#ffffff" d="m85.424,88.023c0.348,0.83 1.039,1.326 1.551,1.111l0,0c0.508,-0.213 0.642,-1.056 0.295,-1.884l-5.69,-13.608c-0.349,-0.83 -1.04,-1.326 -1.552,-1.113l0,0c-0.508,0.214 -0.643,1.057 -0.293,1.885l5.689,13.609z"/>
 </g>
</svg>