<svg xmlns="http://www.w3.org/2000/svg" width="11.901" height="22.631" viewBox="0 0 11.901 22.631"><defs><style>.a{fill:#fff;}</style></defs><path class="a" d="M56.608,57.969c.606,0,1.215.033,1.818.06.394.016.787.072,1.157.112l-.028,3.644h-.29c-.4,0-.8-.005-1.2-.005-.3,0-.6,0-.9.013-.966.032-1.676.394-1.726,1.6-.031.869-.053,2.787-.054,2.888.05,0,1,0,1.965,0,.48,0,.95,0,1.277,0h.78c-.2,1.4-.375,2.742-.57,4.094H55.388L55.31,80.6H51.071l.078-10.239H47.682l.031-4.07H51.2l0-.306c.006-.82,0-1.641.027-2.461a10.179,10.179,0,0,1,.133-1.561,4.631,4.631,0,0,1,1.857-3.04,5.332,5.332,0,0,1,3.056-.949Q56.439,57.969,56.608,57.969Z" transform="translate(-47.682 -57.969)"/></svg>