<svg xmlns="http://www.w3.org/2000/svg" width="25.026" height="20.28" viewBox="0 0 25.026 20.28"><defs><style>.a{fill:#fff;}</style></defs><path class="a" d="M145.879,65.177a8,8,0,0,1-.581.786,9.709,9.709,0,0,1-1.872,1.772l-.087.163a13.842,13.842,0,0,1-.113,2.271,15.189,15.189,0,0,1-4.147,8.592,13.8,13.8,0,0,1-7.07,3.927,15.789,15.789,0,0,1-2.857.336q-.232.007-.462.007a14.349,14.349,0,0,1-7.712-2.21l-.124-.076a11.381,11.381,0,0,0,1.2.065,10.407,10.407,0,0,0,3.927-.765,10.164,10.164,0,0,0,2.444-1.427,5.08,5.08,0,0,1-4.733-3.554,4.992,4.992,0,0,0,.951.092,5.4,5.4,0,0,0,1.243-.149l.077-.039a5.1,5.1,0,0,1-4.043-5.068,5.045,5.045,0,0,0,2.276.614,5.131,5.131,0,0,1-1.5-6.812,14.509,14.509,0,0,0,10.516,5.355c-.027-.21-.054-.383-.082-.565A5.178,5.178,0,0,1,137.4,62.83a5.653,5.653,0,0,1,.932-.079,4.941,4.941,0,0,1,3.541,1.507.272.272,0,0,0,.188.088.313.313,0,0,0,.079-.012,10.11,10.11,0,0,0,2.988-1.139l.068-.038a5.052,5.052,0,0,1-2.177,2.788A9.907,9.907,0,0,0,145.879,65.177Z" transform="translate(-120.853 -62.751)"/></svg>