<svg xmlns="http://www.w3.org/2000/svg" width="25.417" height="25.445" viewBox="0 0 25.417 25.445"><defs><style>.a{fill:#fff;}</style></defs><g transform="translate(6.417 6.795)"><path class="a" d="M130.094,142.034a4.417,4.417,0,0,1,.729.085c.144.019.276.23.352.383.348.815.7,1.628,1,2.462.169.44-.14.862-.788,1.59a.557.557,0,0,0-.092.718,8.525,8.525,0,0,0,4.359,3.765.662.662,0,0,0,.238.049.542.542,0,0,0,.424-.23c.812-.982,1.044-1.411,1.373-1.411a.632.632,0,0,1,.276.079c2.539,1.216,2.739,1.265,2.747,1.552a2.779,2.779,0,0,1-2.914,2.842c-.062,0-.124,0-.182-.006-2.461-.086-6.374-2.031-9.03-6.706a3.8,3.8,0,0,1,.621-4.847A1.239,1.239,0,0,1,130.094,142.034Z" transform="translate(-127.989 -142.034)"/></g><g transform="translate(0 0)"><path class="a" d="M144.878,143.489a12.759,12.759,0,0,1-10.325,14.8,13.053,13.053,0,0,1-2.21.191,12.76,12.76,0,0,1-5.655-1.34,1.207,1.207,0,0,0-.523-.115,1.052,1.052,0,0,0-.253.028c-3.349.843-5.577,1.466-6.258,1.6.148-.546.276-1.025.4-1.5.433-1.533.876-3.056,1.28-4.589a1.142,1.142,0,0,0-.062-.738,12.7,12.7,0,0,1,8.407-18.268,13.012,13.012,0,0,1,2.967-.347A12.461,12.461,0,0,1,144.878,143.489Zm-10.846,12.77a10.64,10.64,0,0,0,8.866-11.984,10.441,10.441,0,0,0-10.33-8.989,10.629,10.629,0,0,0-9.368,15.646,2.161,2.161,0,0,1,.215,2c-.313.891-.512,1.811-.8,2.816,1.258-.326,2.419-.613,3.571-.939a1.17,1.17,0,0,1,.3-.042,1.1,1.1,0,0,1,.56.167,10.354,10.354,0,0,0,5.264,1.462,10.774,10.774,0,0,0,1.718-.14" transform="translate(-119.654 -133.208)"/></g></svg>